<?xml version="1.0" encoding="utf-8"?><svg xmlns="http://www.w3.org/2000/svg" xmlns:xlink="http://www.w3.org/1999/xlink"><symbol viewBox="0 0 18 18" id="icon-calculator" xmlns="http://www.w3.org/2000/svg"><g clip-path="url(#aclip0)"><path d="M18 6.68V1.758A1.76 1.76 0 0016.242 0H11.32a1.76 1.76 0 00-1.722 1.406H8.402A1.76 1.76 0 006.68 0H1.758A1.76 1.76 0 000 1.758V6.68c0 .849.605 1.559 1.406 1.722v1.196A1.76 1.76 0 000 11.32v4.922C0 17.212.789 18 1.758 18H6.68a1.76 1.76 0 001.722-1.406h1.196A1.76 1.76 0 0011.32 18h4.922A1.76 1.76 0 0018 16.242V11.32a1.76 1.76 0 00-1.406-1.722V8.402A1.76 1.76 0 0018 6.68zM11.32.703h4.922c.582 0 1.055.473 1.055 1.055V6.68c0 .581-.473 1.054-1.055 1.054H11.32a1.056 1.056 0 01-1.054-1.054V1.758c0-.582.473-1.055 1.054-1.055zM.703 6.68V1.758c0-.582.473-1.055 1.055-1.055H6.68c.581 0 1.054.473 1.054 1.055V6.68c0 .581-.473 1.054-1.054 1.054H1.758A1.056 1.056 0 01.703 6.68zM6.68 17.297H1.758a1.056 1.056 0 01-1.055-1.055V11.32c0-.581.473-1.054 1.055-1.054h.879a.352.352 0 000-.703h-.528V8.437h4.57A1.76 1.76 0 008.438 6.68V2.11h1.126v4.57c0 .969.788 1.757 1.757 1.757h4.57v1.126h-4.57a1.76 1.76 0 00-1.757 1.757v4.57H8.437v-4.57A1.76 1.76 0 006.68 9.563H5.8a.352.352 0 000 .703h.88c.581 0 1.054.473 1.054 1.054v4.922c0 .582-.473 1.055-1.054 1.055zm10.617-5.977v4.922c0 .582-.473 1.055-1.055 1.055H11.32a1.056 1.056 0 01-1.054-1.055V11.32c0-.581.473-1.054 1.054-1.054h4.922c.582 0 1.055.473 1.055 1.054z"/><path d="M2.813 5.273h.351v.352a1.056 1.056 0 002.11 0v-.352h.351a1.056 1.056 0 000-2.109h-.352v-.352a1.056 1.056 0 00-2.109 0v.352h-.352a1.056 1.056 0 000 2.11zm0-1.406h.703a.352.352 0 00.351-.351v-.704a.352.352 0 01.703 0v.704c0 .194.158.351.352.351h.703a.352.352 0 010 .703h-.703a.352.352 0 00-.352.352v.703a.352.352 0 01-.703 0v-.703a.352.352 0 00-.351-.352h-.704a.352.352 0 010-.703zM5.625 12.727H2.813a1.056 1.056 0 000 2.109h2.812a1.056 1.056 0 000-2.11zm0 1.406H2.813a.352.352 0 010-.703h2.812a.352.352 0 010 .703zM15.521 12.041a1.056 1.056 0 00-1.491 0l-.249.249-.248-.249a1.056 1.056 0 00-1.492 0 1.056 1.056 0 000 1.492l.249.248-.249.249a1.056 1.056 0 00.746 1.8c.27 0 .54-.103.746-.309l.248-.248.249.248a1.056 1.056 0 001.492-1.491l-.25-.249.25-.248a1.056 1.056 0 000-1.492zm-.994 1.989l.497.497a.352.352 0 01-.497.497l-.497-.497a.352.352 0 00-.497 0l-.497.497a.35.35 0 01-.498 0 .352.352 0 010-.497l.498-.497a.352.352 0 000-.497l-.498-.497a.35.35 0 010-.498.35.35 0 01.498 0l.497.498a.352.352 0 00.497 0l.497-.498a.352.352 0 01.497.498l-.497.497a.352.352 0 000 .497zM12.787 6.267c.27 0 .54-.103.746-.308L15.52 3.97A1.056 1.056 0 0014.03 2.48L12.04 4.467a1.056 1.056 0 00.746 1.8zm-.249-1.302l1.989-1.99a.35.35 0 01.497 0 .352.352 0 010 .498l-1.989 1.989a.349.349 0 01-.497 0 .352.352 0 010-.497zM4.219 10.266a.352.352 0 100-.703.351.351 0 100 .703z"/></g><defs><clipPath id="aclip0"><path d="M0 0h18v18H0z"/></clipPath></defs></symbol><symbol viewBox="0 0 17 18" id="icon-search" xmlns="http://www.w3.org/2000/svg"><path fill-rule="evenodd" clip-rule="evenodd" d="M12.075 7.058c0 2.799-2.261 5.058-5.038 5.058C4.261 12.116 2 9.856 2 7.058 2 4.259 4.26 2 7.037 2s5.038 2.259 5.038 5.058zm-1.265 5.959a6.99 6.99 0 01-3.773 1.099C3.151 14.116 0 10.956 0 7.058 0 3.16 3.15 0 7.037 0s7.038 3.16 7.038 7.058c0 1.782-.659 3.41-1.745 4.651l4.466 4.497-1.41 1.42-4.576-4.61z"/></symbol></svg>